REM Generated by IcecastMetadataRecorder
REM 2020-07-29T21:16:11.222Z
TITLE "isics-all"
FILE "isics-all.mp3" WAVE
  TRACK 1 AUDIO
    TITLE "2020-07-29T21:21:47.926Z TO:24605 Dallas County Law 1 FROM:2559982"
    INDEX 01 05:36:52
  TRACK 2 AUDIO
    TITLE "2020-07-29T21:21:49.334Z TO:177 Polk County - Westcom Fire 2 FROM:UNKNOWN"
    INDEX 01 05:38:08
  TRACK 3 AUDIO
    TITLE "2020-07-29T21:21:50.742Z TO:7 Polk County - Westcom Law Enforcement 4 FROM:1377"
    INDEX 01 05:39:38
  TRACK 4 AUDIO
    TITLE "2020-07-29T21:21:54.230Z TO:24631 Dallas County Fire/EMS Operations FROM:UNKNOWN"
    INDEX 01 05:43:01
  TRACK 5 AUDIO
    TITLE "2020-07-29T21:22:01.238Z TO:7 Polk County - Westcom Law Enforcement 4 FROM:1481"
    INDEX 01 05:50:01
  TRACK 6 AUDIO
    TITLE "2020-07-29T21:22:03.350Z TO:1101 Polk County - Westcom Law Enforcement 1 FROM:1004"
    INDEX 01 05:52:09
  TRACK 7 AUDIO
    TITLE "2020-07-29T21:22:05.430Z TO:24631 Dallas County Fire/EMS Operations FROM:2520043"
    INDEX 01 05:54:15
  TRACK 8 AUDIO
    TITLE "2020-07-29T21:22:07.542Z TO:24631 Dallas County Fire/EMS Operations FROM:2559984"
    INDEX 01 05:56:24
  TRACK 9 AUDIO
    TITLE "2020-07-29T21:22:09.622Z TO:24605 Dallas County Law 1 FROM:2559982"
    INDEX 01 05:58:30
  TRACK 10 AUDIO
    TITLE "END"
    INDEX 01 05:59:60